<?xml version="1.0" encoding="UTF-8"?>
<svg id="Layer_2" data-name="Layer 2" xmlns="http://www.w3.org/2000/svg" xmlns:xlink="http://www.w3.org/1999/xlink" viewBox="0 0 151.68 148.72">
  <defs>
    <style>
      .cls-1 {
        fill: url(#linear-gradient-2);
      }

      .cls-2 {
        fill: url(#radial-gradient-7);
      }

      .cls-3 {
        fill: url(#radial-gradient-10);
      }

      .cls-4 {
        fill: url(#radial-gradient-16);
      }

      .cls-5 {
        fill: url(#radial-gradient-8);
      }

      .cls-6 {
        fill: url(#radial-gradient-5);
      }

      .cls-7 {
        fill: url(#radial-gradient-4);
      }

      .cls-8 {
        fill: url(#radial-gradient-6);
      }

      .cls-9 {
        fill: url(#radial-gradient-19);
      }

      .cls-10 {
        fill: url(#radial-gradient-12);
      }

      .cls-11 {
        fill: url(#radial-gradient);
      }

      .cls-12 {
        fill: url(#radial-gradient-13);
      }

      .cls-13 {
        fill: url(#radial-gradient-15);
      }

      .cls-14 {
        fill: url(#radial-gradient-2);
      }

      .cls-15 {
        fill: url(#radial-gradient-3);
      }

      .cls-16 {
        fill: url(#radial-gradient-17);
      }

      .cls-17 {
        fill: url(#radial-gradient-14);
      }

      .cls-18 {
        fill: url(#linear-gradient-3);
      }

      .cls-19 {
        fill: url(#linear-gradient);
      }

      .cls-20 {
        fill: url(#radial-gradient-11);
      }

      .cls-21 {
        fill: url(#radial-gradient-18);
      }

      .cls-22 {
        fill: url(#radial-gradient-9);
      }
    </style>
    <radialGradient id="radial-gradient" cx="74.73" cy="30.52" fx="74.73" fy="30.52" r="51.07" gradientUnits="userSpaceOnUse">
      <stop offset="0" stop-color="#b27f2a"/>
      <stop offset=".06" stop-color="#b6852e"/>
      <stop offset=".14" stop-color="#c49839"/>
      <stop offset=".24" stop-color="#d9b74b"/>
      <stop offset=".33" stop-color="#f4dd62"/>
      <stop offset=".52" stop-color="#f4e38b"/>
      <stop offset=".66" stop-color="#f4dd62"/>
      <stop offset="1" stop-color="#b27f2a"/>
    </radialGradient>
    <radialGradient id="radial-gradient-2" cx="74.73" cy="132.85" fx="74.73" fy="132.85" r="28.2" xlink:href="#radial-gradient"/>
    <radialGradient id="radial-gradient-3" cx="13.87" cy="83.19" fx="13.87" fy="83.19" r="13.46" xlink:href="#radial-gradient"/>
    <radialGradient id="radial-gradient-4" cx="13.87" cy="83.19" fx="13.87" fy="83.19" r="13.46" xlink:href="#radial-gradient"/>
    <radialGradient id="radial-gradient-5" cx="47.51" cy="83.19" fx="47.51" fy="83.19" r="14.13" xlink:href="#radial-gradient"/>
    <radialGradient id="radial-gradient-6" cx="47.51" cy="83.19" fx="47.51" fy="83.19" r="14.13" xlink:href="#radial-gradient"/>
    <radialGradient id="radial-gradient-7" cx="81.39" cy="83.19" fx="81.39" fy="83.19" r="13.67" xlink:href="#radial-gradient"/>
    <radialGradient id="radial-gradient-8" cx="81.39" cy="83.19" fx="81.39" fy="83.19" r="13.67" xlink:href="#radial-gradient"/>
    <radialGradient id="radial-gradient-9" cx="109.86" cy="82.82" fx="109.86" fy="82.82" r="13.93" xlink:href="#radial-gradient"/>
    <radialGradient id="radial-gradient-10" cx="109.86" cy="82.82" fx="109.86" fy="82.82" r="13.93" xlink:href="#radial-gradient"/>
    <radialGradient id="radial-gradient-11" cx="141.17" cy="83.19" fx="141.17" fy="83.19" r="11.85" xlink:href="#radial-gradient"/>
    <radialGradient id="radial-gradient-12" cx="141.17" cy="83.19" fx="141.17" fy="83.19" r="11.85" xlink:href="#radial-gradient"/>
    <radialGradient id="radial-gradient-13" cx="33.07" cy="108.07" fx="33.07" fy="108.07" r="4.98" xlink:href="#radial-gradient"/>
    <radialGradient id="radial-gradient-14" cx="50.46" cy="108.07" fx="50.46" fy="108.07" r="5.08" xlink:href="#radial-gradient"/>
    <radialGradient id="radial-gradient-15" cx="66.95" cy="108.07" fx="66.95" fy="108.07" r="5.33" xlink:href="#radial-gradient"/>
    <radialGradient id="radial-gradient-16" cx="85.59" cy="108.08" fx="85.59" fy="108.08" r="6.31" xlink:href="#radial-gradient"/>
    <radialGradient id="radial-gradient-17" cx="104.58" cy="108.06" fx="104.58" fy="108.06" r="5.41" xlink:href="#radial-gradient"/>
    <radialGradient id="radial-gradient-18" cx="74.49" cy="41.5" fx="74.49" fy="41.5" r="29.03" xlink:href="#radial-gradient"/>
    <radialGradient id="radial-gradient-19" cx="74.49" cy="41.5" fx="74.49" fy="41.5" r="29.03" xlink:href="#radial-gradient"/>
    <linearGradient id="linear-gradient" x1="71.52" y1="22.34" x2="77.07" y2="22.34" gradientUnits="userSpaceOnUse">
      <stop offset="0" stop-color="#b27f2a"/>
      <stop offset=".06" stop-color="#b6852e"/>
      <stop offset=".14" stop-color="#c49839"/>
      <stop offset=".24" stop-color="#d9b74b"/>
      <stop offset=".33" stop-color="#f4dd62"/>
      <stop offset=".52" stop-color="#f4e38b"/>
      <stop offset=".66" stop-color="#f4dd62"/>
      <stop offset="1" stop-color="#b27f2a"/>
    </linearGradient>
    <linearGradient id="linear-gradient-2" x1="108.8" y1="29.02" x2="112.48" y2="29.02" xlink:href="#linear-gradient"/>
    <linearGradient id="linear-gradient-3" x1="36.54" y1="29.31" x2="40.22" y2="29.31" xlink:href="#linear-gradient"/>
  </defs>
  <g id="Layer_1-2" data-name="Layer 1">
    <g>
      <path class="cls-11" d="M16.96,61.04c-3.95-19.53-4.05-34.7-3.67-42.64,4.07,1.94,10.31,3.86,19.06,3.86,4.43,0,9.19-.49,14.14-1.46,14.55-2.84,23.79-10.35,28.25-14.92,4.46,4.56,13.69,12.07,28.25,14.92,4.95,.97,9.71,1.46,14.14,1.46,8.75,0,14.98-1.91,19.06-3.86,.38,7.94,.28,23.11-3.67,42.64h3.93c5.93-29.81,3.05-49.34,3.05-49.34,0,0-6.42,6.71-22.37,6.71-3.89,0-8.34-.4-13.4-1.39C83.94,13.15,74.73,0,74.73,0c0,0-9.21,13.15-28.99,17.02-5.06,.99-9.52,1.39-13.4,1.39-15.95,0-22.37-6.71-22.37-6.71,0,0-2.88,19.53,3.05,49.34h3.93Z"/>
      <path class="cls-14" d="M106.31,116.98c-10.05,11.83-21.42,20.74-31.58,27.2-10.16-6.46-21.53-15.37-31.58-27.2h-5.01c11.63,14.43,25.2,24.74,36.59,31.75,11.39-7,24.96-17.32,36.59-31.75h-5.01Z"/>
      <g>
        <g>
          <g>
            <path class="cls-15" d="M10.18,71.79h-1.71v21.73c.02,.65,.27,1.2,.73,1.66,.46,.46,1.01,.69,1.66,.69h.48v.37H0v-.37H.49c.89,0,1.58-.39,2.05-1.16,.2-.35,.31-.73,.34-1.16v-20.69c-.03-.65-.27-1.2-.73-1.66-.46-.46-1.01-.69-1.66-.69h-.49v-.37H12.79c2.41,0,4.45,.52,6.11,1.57,.84,.52,1.52,1.25,2.01,2.18,.5,.93,.75,2.15,.75,3.65s-.52,2.95-1.57,4.34c-1.04,1.39-2.56,2.19-4.55,2.39,1.44,.47,2.71,1.57,3.8,3.28,2.68,4.3,4.67,6.86,5.96,7.68,.65,.4,1.45,.61,2.42,.63v.37h-3.65c-2.16,0-3.96-.29-5.39-.86-1.43-.57-2.55-1.58-3.37-3.02-.47-.82-1.5-2.94-3.09-6.37-.7-1.52-1.54-2.35-2.53-2.5v-.37h1.16c1.12,0,2.11-.34,2.96-1.01,.86-.67,1.44-1.76,1.73-3.28,.1-.52,.15-.93,.15-1.23,0-2.04-.41-3.51-1.23-4.42-.82-.91-1.88-1.37-3.17-1.4h-1.12Z"/>
            <path class="cls-7" d="M7.33,71.28v22.28c.02,.56,.16,1.08,.41,1.54H3.61c.23-.45,.36-.95,.39-1.48v-.03s0-.03,0-.03v-20.73c-.02-.56-.16-1.08-.41-1.54h3.73m6.61,.05c1.69,.14,3.16,.59,4.37,1.35,.68,.42,1.2,.99,1.61,1.75,.41,.76,.61,1.81,.61,3.12s-.44,2.46-1.34,3.66c-.85,1.14-2.08,1.77-3.75,1.94l-1.3,.13c.13-.08,.25-.18,.37-.27,1.07-.84,1.8-2.17,2.15-3.96,.11-.6,.17-1.07,.17-1.44,0-2.35-.5-4.04-1.52-5.18-.41-.45-.87-.82-1.37-1.1m-1.19,13.22l2.45,.8c1.18,.39,2.26,1.33,3.19,2.8,2.43,3.88,3.98,5.87,5.02,6.94-1.71-.05-3.15-.31-4.29-.77-1.19-.48-2.11-1.3-2.81-2.53-.45-.79-1.48-2.9-3.05-6.28-.16-.35-.33-.67-.51-.97m.04-14.4H0v.37H.49c.65,0,1.2,.23,1.66,.69,.46,.46,.7,1.01,.73,1.66v20.69c-.03,.42-.14,.81-.34,1.16-.47,.77-1.16,1.16-2.05,1.16h-.49v.37H11.33v-.37h-.48c-.65,0-1.2-.23-1.66-.69-.46-.46-.7-1.01-.73-1.66v-21.73h2.83c1.29,.02,2.35,.49,3.17,1.4,.82,.91,1.23,2.38,1.23,4.42,0,.3-.05,.71-.15,1.23-.3,1.52-.88,2.61-1.73,3.28-.86,.67-1.85,1.01-2.96,1.01h-1.16v.37c.99,.15,1.84,.98,2.53,2.5,1.59,3.43,2.62,5.55,3.09,6.37,.82,1.44,1.94,2.45,3.37,3.02,1.43,.57,3.22,.86,5.39,.86h3.65v-.37c-.97-.02-1.78-.24-2.42-.63-1.29-.82-3.28-3.38-5.96-7.68-1.09-1.71-2.36-2.81-3.8-3.28,1.99-.2,3.5-.99,4.55-2.39,1.04-1.39,1.57-2.84,1.57-4.34s-.25-2.72-.75-3.65c-.5-.93-1.17-1.66-2.01-2.18-1.67-1.04-3.7-1.57-6.11-1.57h0Z"/>
          </g>
          <g>
            <path class="cls-6" d="M36.81,73.28c2.65-2.44,6.21-3.65,10.7-3.65s8.05,1.22,10.7,3.65c2.65,2.44,3.97,5.74,3.97,9.92s-1.32,7.48-3.97,9.92c-2.65,2.44-6.21,3.65-10.7,3.65s-8.05-1.22-10.7-3.65c-2.65-2.44-3.97-5.74-3.97-9.92s1.32-7.48,3.97-9.92Zm4.44,18.69c1.53,2.15,3.61,3.22,6.24,3.22s4.72-1.07,6.26-3.22c1.54-2.15,2.31-5.08,2.31-8.78s-.77-6.63-2.31-8.78c-1.54-2.15-3.63-3.22-6.26-3.22s-4.72,1.08-6.24,3.22c-1.53,2.15-2.29,5.08-2.29,8.78s.76,6.63,2.29,8.78Z"/>
            <path class="cls-8" d="M52.1,71.29c2.1,.54,3.89,1.48,5.34,2.82,2.43,2.23,3.6,5.2,3.6,9.08s-1.18,6.85-3.6,9.08c-1.45,1.34-3.24,2.28-5.34,2.82,.97-.6,1.83-1.42,2.58-2.46,1.67-2.34,2.52-5.51,2.52-9.44s-.85-7.1-2.52-9.44c-.74-1.04-1.6-1.86-2.58-2.46m-9.23,.01c-.96,.6-1.81,1.42-2.54,2.45-1.66,2.34-2.5,5.51-2.5,9.44s.84,7.1,2.5,9.44c.73,1.03,1.58,1.85,2.54,2.45-2.08-.54-3.85-1.48-5.29-2.8-2.42-2.23-3.6-5.2-3.6-9.08s1.18-6.85,3.6-9.08c1.44-1.33,3.21-2.26,5.29-2.8m4.64-1.68c-4.49,0-8.05,1.22-10.7,3.65-2.65,2.44-3.97,5.74-3.97,9.92s1.32,7.48,3.97,9.92c2.65,2.44,6.21,3.65,10.7,3.65s8.05-1.22,10.7-3.65c2.65-2.44,3.97-5.74,3.97-9.92s-1.32-7.48-3.97-9.92c-2.65-2.44-6.21-3.65-10.7-3.65h0Zm-.02,25.57c-2.64,0-4.72-1.07-6.24-3.22-1.53-2.15-2.29-5.08-2.29-8.78s.76-6.63,2.29-8.78c1.53-2.15,3.61-3.22,6.24-3.22s4.72,1.08,6.26,3.22c1.54,2.15,2.31,5.08,2.31,8.78s-.77,6.63-2.31,8.78c-1.54,2.15-3.63,3.22-6.26,3.22h0Z"/>
          </g>
          <g>
            <path class="cls-2" d="M95.65,70.52h-.52c-.75,0-1.45,.21-2.13,.63-.67,.42-1.21,.93-1.6,1.53l-7.34,11.7v9.13c0,.65,.24,1.2,.71,1.66,.47,.46,1.03,.69,1.68,.69h.45l.04,.37h-11.33v-.37h.48c.65,0,1.2-.22,1.66-.67,.46-.45,.7-.99,.73-1.64v-9.21l-7.12-11.7c-.37-.6-.9-1.1-1.58-1.51-.68-.41-1.39-.61-2.11-.61h-.52v-.37h12.34v.37h-.48c-.55,0-.97,.25-1.27,.75-.15,.27-.22,.54-.22,.8s.06,.52,.19,.76l5.33,9.69,5.55-9.69c.12-.25,.19-.5,.19-.76s-.09-.52-.26-.76c-.3-.52-.72-.78-1.27-.78h-.45v-.37h8.87v.37Z"/>
            <path class="cls-5" d="M91.08,71.28c-.23,.25-.44,.51-.63,.8l-1.56,2.49,.67-1.17,.02-.03v-.03c.22-.41,.32-.83,.32-1.27,0-.27-.05-.53-.14-.79h1.32m-14.59,0c-.08,.26-.12,.52-.12,.79,0,.44,.1,.87,.33,1.31l5.33,9.69,.9,1.64v8.81c0,.57,.13,1.11,.39,1.59h-4.1c.24-.46,.37-.98,.39-1.55v-9.53l-.17-.27-7.13-11.72c-.17-.27-.36-.52-.58-.76h4.76m19.16-1.13h-8.87v.37h.45c.55,0,.97,.26,1.27,.78,.17,.25,.26,.5,.26,.76s-.06,.52-.19,.76l-5.55,9.69-5.33-9.69c-.12-.25-.19-.5-.19-.76s.07-.53,.22-.8c.3-.5,.72-.75,1.27-.75h.48v-.37h-12.34v.37h.52c.72,0,1.42,.2,2.11,.61,.68,.41,1.21,.91,1.58,1.51l7.12,11.7v9.21c-.02,.65-.27,1.19-.73,1.64-.46,.45-1.01,.67-1.66,.67h-.48v.37h11.33l-.04-.37h-.45c-.65,0-1.21-.23-1.68-.69-.47-.46-.71-1.01-.71-1.66v-9.13l7.34-11.7c.4-.6,.93-1.11,1.6-1.53,.67-.42,1.38-.63,2.13-.63h.52v-.37h0Z"/>
          </g>
          <g>
            <path class="cls-22" d="M123.95,95.87h.34v.37h-11.89v-.37h.34c.55,0,.95-.17,1.21-.5,.26-.34,.39-.65,.39-.95s-.06-.6-.19-.89l-1.83-4.59h-8.72l-1.94,4.59c-.12,.32-.19,.63-.19,.91s.14,.6,.41,.93c.27,.34,.68,.5,1.23,.5h.3v.37h-7.98v-.37h.34c.57,0,1.14-.17,1.71-.52,.57-.35,1.04-.87,1.42-1.57l8.61-19.5c1.17-2.46,1.79-4.09,1.86-4.88h.34l11.07,24.3c.37,.72,.84,1.26,1.42,1.62,.57,.36,1.16,.54,1.75,.54Zm-19.72-8.5h7.46l-3.62-9.17-3.84,9.17Z"/>
            <path class="cls-3" d="M109.71,72.13l10.04,22.04v.03s.02,.03,.02,.03c.17,.32,.35,.61,.55,.88h-4.97c.07-.23,.11-.46,.11-.69,0-.45-.09-.89-.27-1.31l-1.83-4.59-.28-.71h-.01l-.33-.85-3.62-9.17-.91-2.3,.32-.72c.51-1.08,.89-1.94,1.17-2.64m-6.15,13.9l-.37,.89-.66,1.57h.02l-1.95,4.61c-.17,.45-.26,.9-.26,1.32,0,.22,.04,.45,.11,.67h-1.05c.18-.24,.35-.51,.5-.79l.02-.04,.02-.04,3.62-8.2m6.15-16.64h-.34c-.07,.8-.7,2.42-1.86,4.88l-8.61,19.5c-.37,.7-.84,1.22-1.42,1.57-.57,.35-1.14,.52-1.71,.52h-.34v.37h7.98v-.37h-.3c-.55,0-.96-.17-1.23-.5-.27-.34-.41-.65-.41-.93s.06-.59,.19-.91l1.94-4.59h8.72l1.83,4.59c.12,.3,.19,.6,.19,.89s-.13,.62-.39,.95c-.26,.34-.66,.5-1.21,.5h-.34v.37h11.89v-.37h-.34c-.6,0-1.18-.18-1.75-.54-.57-.36-1.04-.9-1.42-1.62l-11.07-24.3h0Zm-5.48,17.97l3.84-9.17,3.62,9.17h-7.46Z"/>
          </g>
          <g>
            <path class="cls-20" d="M131.14,95.87c.65,0,1.2-.23,1.66-.69,.46-.46,.7-1.01,.73-1.66v-20.65c-.03-.65-.27-1.2-.73-1.66-.46-.46-1.01-.69-1.66-.69h-.48v-.37h11.33l-.04,.37h-.45c-.65,0-1.21,.23-1.68,.69-.47,.46-.71,1.01-.71,1.66v21.77h4.88c1.81,0,3.34-.52,4.57-1.57,1.23-1.04,2.14-2.52,2.74-4.44h.37l-1.71,7.6h-19.31v-.37h.48Z"/>
            <path class="cls-10" d="M138.37,71.28c-.25,.48-.39,1.02-.39,1.59v22.24h-3.73c.25-.47,.39-1,.41-1.59v-20.7c-.02-.56-.16-1.08-.41-1.54h4.12m10.96,22.63l-.27,1.19h-1.64c.68-.29,1.31-.68,1.88-1.17,0,0,.02-.02,.03-.02m-7.34-23.77h-11.33v.37h.48c.65,0,1.2,.23,1.66,.69,.46,.46,.7,1.01,.73,1.66v20.65c-.03,.65-.27,1.2-.73,1.66-.46,.46-1.01,.69-1.66,.69h-.48v.37h19.31l1.71-7.6h-.37c-.6,1.91-1.51,3.39-2.74,4.44-1.23,1.04-2.75,1.57-4.57,1.57h-4.88v-21.77c0-.65,.24-1.2,.71-1.66,.47-.46,1.03-.69,1.68-.69h.45l.04-.37h0Z"/>
          </g>
        </g>
        <g>
          <path class="cls-12" d="M34.05,113.18c-1.81,0-3.23-.46-4.26-1.37-1.03-.91-1.55-2.16-1.55-3.74s.51-2.84,1.53-3.75,2.42-1.37,4.21-1.37c1.36,0,2.53,.25,3.5,.76l.03,2.42h-.11c-.48-1.73-1.57-2.59-3.28-2.59-1.11,0-1.98,.4-2.62,1.2-.64,.8-.96,1.9-.96,3.29s.31,2.49,.92,3.31c.61,.82,1.45,1.24,2.5,1.27,1.09,0,1.92-.27,2.49-.82,.58-.56,.98-1.53,1.21-2.9h.11l.14,2.42c-.76,1.26-2.05,1.88-3.86,1.88Z"/>
          <path class="cls-17" d="M49.06,103.76h-.65v8.2c0,.24,.1,.45,.27,.63,.17,.17,.38,.26,.63,.26h.18v.14h-4.28v-.14h.18c.34,0,.6-.15,.77-.44,.08-.13,.12-.28,.13-.44v-7.81c0-.24-.1-.45-.27-.63s-.38-.26-.63-.26h-.18v-.14h4.83c.91,0,1.68,.2,2.31,.59,.32,.2,.57,.47,.76,.82,.19,.35,.28,.81,.28,1.38s-.2,1.11-.59,1.64c-.39,.53-.97,.83-1.72,.9,.54,.18,1.02,.59,1.43,1.24,1.01,1.62,1.76,2.59,2.25,2.9,.24,.15,.55,.23,.91,.24v.14h-1.38c-.82,0-1.49-.11-2.03-.32-.54-.22-.96-.6-1.27-1.14-.18-.31-.57-1.11-1.17-2.41-.26-.57-.58-.89-.96-.94v-.14h.44c.42,0,.79-.13,1.12-.38,.32-.25,.54-.67,.65-1.24,.04-.2,.06-.35,.06-.46,0-.77-.15-1.32-.46-1.67-.31-.34-.71-.52-1.2-.53h-.42Z"/>
          <path class="cls-13" d="M62.91,104.33c1-.92,2.34-1.38,4.04-1.38s3.04,.46,4.04,1.38c1,.92,1.5,2.17,1.5,3.74s-.5,2.82-1.5,3.74c-1,.92-2.34,1.38-4.04,1.38s-3.04-.46-4.04-1.38c-1-.92-1.5-2.17-1.5-3.74s.5-2.82,1.5-3.74Zm1.67,7.06c.58,.81,1.36,1.22,2.36,1.22s1.78-.41,2.36-1.22c.58-.81,.87-1.92,.87-3.31s-.29-2.5-.87-3.31c-.58-.81-1.37-1.22-2.36-1.22s-1.78,.41-2.36,1.22c-.58,.81-.87,1.92-.87,3.31s.29,2.5,.87,3.31Z"/>
          <path class="cls-4" d="M92.86,103.28h-.13c-.23,0-.47,.07-.71,.21-.24,.14-.41,.34-.51,.61l-2.36,7.58c-.16,.52-.24,.99-.24,1.44v.13h-.14l-3.07-6.8-2.22,5.23c-.22,.54-.33,1.07-.34,1.56h-.14l-3.36-9.15c-.12-.27-.3-.48-.52-.61-.23-.14-.45-.2-.69-.2h-.11v-.14h4.29v.14h-.13c-.2,0-.34,.06-.44,.19-.1,.13-.15,.25-.15,.36s.02,.22,.06,.32l1.73,4.9,2.55-6.13h.13s2.8,6.19,2.8,6.19l1.41-4.95c.03-.1,.04-.21,.04-.32s-.04-.23-.13-.36c-.09-.13-.24-.19-.44-.19h-.13v-.14h2.97v.14Z"/>
          <path class="cls-16" d="M109.99,103.28c-.33,0-.58,.14-.75,.42-.08,.12-.12,.26-.13,.42v7.26c0,.63,.04,1.16,.13,1.59l.04,.21h-.13l-7.1-6.77v5.59c0,.23,.08,.43,.25,.6,.17,.16,.37,.25,.61,.25h.27v.14h-4.26v-.14h.25c.24,0,.45-.08,.62-.25,.17-.16,.25-.37,.25-.61v-7.3c0-.62-.04-1.13-.13-1.55l-.03-.21h.13l7.11,6.77v-5.56c0-.24-.1-.45-.27-.61-.17-.16-.37-.25-.6-.25h-.25v-.14h4.26v.14h-.27Z"/>
        </g>
      </g>
      <g>
        <g>
          <path class="cls-21" d="M109.58,30.51c-3.14,4.33-12.79,16.56-20.95,16.08-5.5-.32-11.97-9.23-13.84-21.52-.15-1-.27-2.01-.36-3.05-.04,1.05-.12,2.08-.24,3.09-1.4,12.31-8.35,21.15-13.85,21.48-8.04,.47-17.51-11.37-20.81-15.87-.71-.97-1.13-1.6-1.19-1.7l.68,2,10.39,29.94h50.14l10.49-30.22,.59-1.72c-.05,.09-.43,.64-1.05,1.49Zm-47.5,24.07c-1.22,0-2.19-.97-2.19-2.19s.97-2.2,2.19-2.2,2.2,.98,2.2,2.2-.98,2.19-2.2,2.19Zm12.42,2.04l-2.74-5.65,2.74-5.64,2.74,5.64-2.74,5.65Zm12.42-2.04c-1.2,0-2.19-.97-2.19-2.19s.98-2.2,2.19-2.2,2.2,.98,2.2,2.2-.98,2.19-2.2,2.19Z"/>
          <path class="cls-9" d="M74.53,27.16c2.18,11.05,8.15,19.7,14.06,20.05,.17,0,.34,.02,.51,.02,7.32,0,15.41-9.07,19.61-14.53l-9.6,27.66H49.85l-9.6-27.66c4.14,5.36,12.29,14.52,19.62,14.52,.17,0,.34,0,.51-.01,5.49-.32,12.22-8.36,14.15-20.05m-.02,30.88l.55-1.14,2.74-5.65,.13-.27-.13-.27-2.74-5.64-.55-1.13-.55,1.13-2.74,5.64-.13,.27,.13,.27,2.74,5.65,.55,1.14m12.42-2.83c1.55,0,2.81-1.26,2.81-2.8s-1.26-2.81-2.81-2.81-2.8,1.26-2.8,2.81,1.26,2.8,2.8,2.8m-24.85,0c1.55,0,2.81-1.26,2.81-2.8s-1.26-2.81-2.81-2.81-2.8,1.26-2.8,2.81,1.26,2.8,2.8,2.8m12.35-33.17c-.04,1.05-.12,2.08-.24,3.09-1.4,12.31-8.35,21.15-13.85,21.48-.16,0-.31,.01-.47,.01-7.93,0-17.1-11.47-20.34-15.89-.71-.97-1.13-1.6-1.19-1.7l.68,2,10.39,29.94h50.14l10.49-30.22,.59-1.72c-.05,.09-.43,.64-1.05,1.49-3.08,4.24-12.42,16.09-20.48,16.09-.16,0-.32,0-.47-.01-5.5-.32-11.97-9.23-13.84-21.52-.15-1-.27-2.01-.36-3.05h0Zm.07,34.6l-2.74-5.65,2.74-5.64,2.74,5.64-2.74,5.65h0Zm12.42-2.04c-1.2,0-2.19-.97-2.19-2.19s.98-2.2,2.19-2.2,2.2,.98,2.2,2.2-.98,2.19-2.2,2.19h0Zm-24.85,0c-1.22,0-2.19-.97-2.19-2.19s.97-2.2,2.19-2.2,2.2,.98,2.2,2.2-.98,2.19-2.2,2.19h0Z"/>
        </g>
        <path class="cls-19" d="M77.07,22.34c0,1.53-1.24,2.78-2.78,2.78s-2.78-1.24-2.78-2.78,1.24-2.78,2.78-2.78,2.78,1.24,2.78,2.78Z"/>
        <path class="cls-1" d="M112.48,29.02c0,1.02-.82,1.84-1.84,1.84s-1.84-.82-1.84-1.84,.82-1.84,1.84-1.84,1.84,.82,1.84,1.84Z"/>
        <path class="cls-18" d="M40.22,29.31c0,1.02-.82,1.84-1.84,1.84s-1.84-.82-1.84-1.84,.82-1.84,1.84-1.84,1.84,.82,1.84,1.84Z"/>
      </g>
    </g>
  </g>
</svg>